<?xml version="1.0" encoding="UTF-8" standalone="no"?>
<!-- Created with Inkscape (http://www.inkscape.org/) -->

<svg
   width="179.2569mm"
   height="40.523125mm"
   viewBox="0 0 179.2569 40.523125"
   version="1.1"
   id="svg1"
   xml:space="preserve"
   xmlns="http://www.w3.org/2000/svg"
   xmlns:svg="http://www.w3.org/2000/svg"><defs
     id="defs1" /><g
     id="layer1"
     transform="translate(-7.8751971,-164.2702)"><g
       id="g48"
       transform="matrix(0.3526181,0,0,0.3526181,-6.0519389,-32.896201)">
	
	<path
   class="st1"
   d="m 494.66,300.59 c -0.41,16.15 -0.47,34.27 -4.84,52 -1.69,6.85 -4.02,13.5 -7.69,19.58 -5.71,9.45 -17.64,10.13 -23.82,1.25 -4.19,-6.02 -3.72,-12.39 -0.16,-18.53 2.3,-3.97 5.07,-7.66 7.48,-11.56 6.07,-9.83 8.2,-20.89 9.36,-32.11 2.81,-27.19 1.32,-54.16 -5.58,-80.64 -3.4,-13.05 -7.84,-25.83 -15.49,-37.18 -0.05,-0.08 -0.1,-0.17 -0.15,-0.25 -3.46,-5.11 -3.95,-5.34 -9.65,-3.15 -13.43,5.14 -24.82,13.18 -33.64,24.58 -7.78,10.06 -10.43,21.9 -11.04,34.34 -0.15,3.13 -0.52,6.23 -1.15,9.31 -2.89,14.21 -15.86,19.49 -27.9,11.35 -8.66,-5.85 -13.06,-17.19 -10.98,-27.84 2.56,-13.15 9.11,-24.33 17.55,-34.36 14.32,-17.04 32.29,-29.11 53.2,-36.57 9.9,-3.54 19.71,-3.61 27.51,5.19 2.98,3.36 5.95,6.74 8.39,10.53 12.76,19.76 20.94,41.21 24.11,64.57 2.14,15.77 4.37,31.55 4.49,49.49 z"
   id="path2" />
	<path
   class="st1"
   d="m 112.88,288.94 c 0.08,12.55 1.16,24.99 3.82,37.27 2.03,9.35 6.56,17.47 12.15,25.12 2.31,3.16 4.03,6.69 4.71,10.64 1,5.8 -2,12.44 -7.12,15.68 -4.46,2.82 -10.53,2.7 -14.91,-0.59 -4.4,-3.31 -6.46,-8.25 -8.43,-13.16 -5.54,-13.82 -7.03,-28.38 -7.8,-43.08 -0.5,-9.57 -1.23,-19.17 -0.55,-28.72 1.61,-22.52 3.19,-45.12 10.17,-66.78 5.57,-17.29 13.13,-33.63 25.1,-47.67 6.01,-7.05 13.18,-10 22.33,-8.54 8.76,1.4 16.59,5.09 24.15,9.46 12.23,7.06 23.76,15.08 33.2,25.72 8.84,9.97 15.95,21.03 19.32,34.07 2.97,11.51 0.28,23.65 -9.79,30.97 -8.54,6.2 -20.25,4.81 -25.14,-3.21 -3.23,-5.29 -3.94,-11.21 -4.26,-17.17 -0.43,-8.16 -1.66,-16.11 -4.86,-23.71 -3.98,-9.45 -10.54,-16.8 -18.51,-23.03 -7.2,-5.63 -14.93,-10.27 -23.67,-13.22 -2.44,-0.82 -3.71,-0.37 -5.22,1.41 -5.34,6.3 -8.63,13.72 -11.57,21.27 -7.03,18.07 -11.12,36.8 -12.23,56.2 -0.4,7.02 -0.93,14.03 -0.89,21.07 z"
   id="path3" />
	
	<path
   class="st1"
   d="m 400.89,362.01 c -0.01,3.89 0.09,3.43 3.8,4.18 6.77,1.37 14.15,5.89 14.32,14.29 0.11,5.72 -0.56,11.13 -4.51,15.64 -1.26,1.43 -0.39,2.31 0.66,3.41 6.52,6.81 5.38,19.94 -2.15,25.61 -4.04,3.05 -8.57,2.87 -13.19,1.89 -3.44,-0.73 -3.48,-0.73 -3.12,2.76 0.38,3.69 -1.43,8.34 -6.12,9.89 -1.95,0.64 -3.79,1.58 -5.74,2.23 -9.23,3.11 -14.4,1.53 -20.09,-6.35 -1.57,-2.18 -2.69,-2.79 -5.06,-0.88 -5.01,4.06 -13.48,3.87 -18.26,-0.41 -4.33,-3.88 -7.81,-8.45 -9.42,-14.21 -0.76,-2.71 -0.8,-5.45 0.03,-8.1 0.48,-1.52 0.08,-2.35 -1.1,-3.2 -1.58,-1.14 -3.08,-2.36 -4.5,-3.73 -5.23,-5.05 -5.8,-11.02 -2.99,-17.22 2.81,-6.22 6.02,-12.36 13.33,-14.68 1.82,-0.58 1.13,-2.25 1.04,-3.54 -0.52,-7.33 1.83,-13.63 7.65,-18.08 7.59,-5.8 16.69,-4.27 23.54,1.24 1.58,1.27 1.99,1.09 3.4,-0.08 6.89,-5.72 12.2,-7.2 20.56,-4.38 4.15,1.4 7.93,8.3 7.92,13.72 z m 1.52,29.04 c 0.04,-4.73 -3.83,-12.38 -11.36,-17.65 -12.48,-8.73 -25.3,-8.44 -37.96,0.03 -8.84,5.92 -13.24,19.34 -10.15,29.36 3.66,11.86 15.59,19.93 27.64,20.48 17.06,0.78 31.44,-11.61 31.83,-32.22 z"
   id="path5" />
	<path
   class="st1"
   d="m 251.34,368.97 c -0.61,2.19 0.19,3.64 3.12,5.12 7.95,4.03 11.55,11.4 12.74,19.89 0.86,6.18 -2.93,10.31 -7.48,13.66 -2.04,1.5 -2.95,2.72 -2.32,5.48 1.44,6.36 -1.57,11.6 -5.23,16.47 -1.17,1.56 -2.48,3.04 -3.92,4.34 -5.34,4.84 -14.17,4.86 -19.61,0.03 -1.23,-1.09 -2.03,-1.27 -3.03,0.18 -0.88,1.28 -1.99,2.41 -2.91,3.68 -3.86,5.3 -9.2,6.23 -15.17,5.05 -3.86,-0.76 -7.53,-2.27 -10.91,-4.19 -3.66,-2.07 -4.61,-5.71 -3.91,-9.66 0.45,-2.55 -0.28,-2.81 -2.56,-2.17 -7.99,2.24 -14.48,0.13 -17.83,-6.17 -3.32,-6.25 -4.37,-15.75 1.86,-21.2 1.48,-1.3 1.39,-2.34 0.29,-3.69 -4.6,-5.66 -4.8,-12.17 -3.53,-18.91 0.62,-3.27 2.62,-5.7 5.5,-7.21 3.22,-1.69 6.12,-4.34 10.27,-3.53 1.7,0.33 1.77,-0.99 1.7,-2.3 -0.19,-3.35 0.11,-6.51 1.84,-9.61 3.57,-6.43 9.68,-8.02 16.3,-6.99 3.87,0.6 7.33,2.65 10.22,5.32 1.39,1.28 2.14,1.36 3.6,0.13 8.23,-6.93 19.3,-6.43 26.26,1.56 3.37,3.86 5.21,8.7 4.71,14.72 z m -34.25,-1.8 c -3.32,-0.23 -6.42,0.58 -9.55,1.46 -20.23,5.67 -27.24,29.5 -13.24,45.08 9.33,10.38 26.56,12.57 39.3,4.99 12.33,-7.33 17.25,-21.43 11.28,-34.43 -5.34,-11.64 -15.34,-16.59 -27.79,-17.1 z"
   id="path6" />
	<path
   class="st2"
   d="m 181.33,266.6 c 0.69,2.45 -0.7,5.13 -1.96,7.75 -1.68,3.51 -4.64,5.16 -8.56,4.99 -0.68,-0.03 -1.38,-0.04 -2.04,-0.2 -9.64,-2.31 -14.66,3.12 -17.27,11.48 -2.26,7.22 -2.4,14.84 -4.14,22.16 -0.49,2.09 -0.85,4.22 -1.46,6.27 -1.41,4.74 -3.94,6.6 -8.49,6.45 -3.61,-0.12 -7.49,-3.55 -8.64,-7.3 -3.82,-12.43 -4.01,-25.21 -4,-38.04 0,-14.12 1.47,-28.1 4.11,-41.93 1.9,-9.93 5.71,-19.29 10.78,-28.05 2.28,-3.94 6.03,-4.36 10.12,-2.09 8.45,4.69 13.2,12.47 17.88,20.41 4.23,7.2 7,15.05 10.28,22.67 1.99,4.66 3.21,9.62 3.39,15.43 z"
   id="path7" />
	<path
   class="st2"
   d="m 464.41,284.55 c 0.26,10.1 -0.3,22.17 -4.08,33.87 -1.4,4.34 -5.31,7.29 -9.35,7.01 -4.35,-0.3 -6.29,-1.87 -7.56,-6.07 -2.27,-7.52 -2.97,-15.34 -4.28,-23.04 -0.54,-3.21 -1.55,-6.26 -2.77,-9.23 -2.68,-6.5 -7.52,-9.2 -14.45,-8.17 -2.22,0.33 -4.44,0.81 -6.67,0.08 -4.05,-1.32 -6.98,-5.66 -7.22,-10.4 -0.31,-6.19 1.08,-12.05 3.41,-17.68 3.13,-7.57 5.96,-15.31 10.11,-22.41 4.53,-7.75 9.14,-15.49 17.42,-20.07 5.53,-3.06 8.55,-2.06 11.62,3.47 8.2,14.78 11.14,30.9 12.8,47.44 0.76,7.72 1,15.41 1.02,25.2 z"
   id="path8" />
	
	<g
   id="g49"
   transform="translate(0,-10)"><path
     class="st2"
     d="m 488.18,629.22 c -1.52,1.03 -2.91,1.6 -4.53,1.62 -1.07,0.01 -1.97,-0.23 -2.44,-1.24 -0.44,-0.94 0.06,-1.64 0.67,-2.36 3.43,-4.08 5.48,-8.97 7.83,-13.67 0.94,-1.87 1.71,-3.64 4.1,-3.44 2.39,0.19 3.18,1.96 3.47,4.06 0.06,0.45 0.18,0.9 0.27,1.33 1.15,0 1.66,-0.85 2.43,-1.22 3.13,-1.55 6.24,-3.03 9.5,-0.15 1.12,0.99 2.45,1.06 3.79,0.18 1.63,-1.07 3.54,-1.82 4.93,-3.12 3.41,-3.2 7.19,-2.3 10.93,-1.24 2.65,0.75 3.41,3.09 3.38,5.59 -0.08,8.15 -0.85,16.18 -3.87,23.87 -0.98,2.5 0.74,6.97 3.02,8.26 1.51,0.86 2.82,0.38 4.01,-0.68 1.8,-1.61 2.93,-3.63 3.56,-5.96 0.51,-1.89 0.95,-3.82 2.19,-5.4 1.01,-1.28 2.3,-2.36 4.01,-1.75 1.61,0.57 2.23,2.07 2.4,3.74 0.21,2.06 -0.89,3.77 -1.46,5.62 -1.02,3.31 -2.75,6.21 -5.24,8.64 -4.93,4.79 -10.98,4.9 -15.71,-0.14 -1.83,-1.95 -3.12,-1.88 -5.2,-0.71 -5.79,3.24 -11.05,0.55 -12.31,-6.05 -1.3,-6.77 0.39,-13.03 3.27,-19.03 1.04,-2.17 1.73,-3.61 -1.59,-3.76 -0.73,-0.03 -1.48,-0.49 -2.13,-0.89 -3.12,-1.9 -4.01,-1.27 -6.52,1.28 -5.77,5.86 -5.45,13.29 -5.99,20.51 -0.35,4.77 -0.49,9.55 -1.3,14.29 -0.34,1.99 -1.05,3.39 -3.03,3.76 -2.1,0.38 -3.52,-0.75 -4.51,-2.53 -1.83,-3.28 -1.88,-3.33 -5.05,-1.13 -5.69,3.95 -13.52,4.62 -19.14,-2.19 -0.65,-0.79 -1.4,-1.35 -2.49,-1.33 -6.08,0.11 -8.69,-3.78 -9.92,-9.25 -1.09,-4.85 -1.55,-9.84 -2.4,-14.75 -0.22,-1.28 -0.19,-3.34 -1.7,-3.38 -1.45,-0.04 -1.56,2.03 -1.93,3.27 -2.42,8.04 -5.2,15.98 -7.14,24.17 -0.57,2.4 -2.04,4.36 -4.73,4.57 -2.6,0.21 -3.32,-1.97 -4.09,-3.9 -1.99,-4.95 -3.98,-9.9 -6.03,-15.02 -1.63,1.29 -1.8,3.05 -2.59,4.46 -2.81,5.02 -7.65,8.95 -13.58,4.64 -1.44,-1.05 -2.35,-0.54 -2.97,0.9 -0.87,2.02 -2.17,3.71 -3.94,5.01 -3.32,2.42 -7.37,1.73 -9.68,-1.66 -4.68,-6.88 -4.32,-14.4 -2.68,-22.04 0.97,-4.53 2.42,-8.88 5.92,-12.2 2.37,-2.25 5.71,-2.39 8.25,-0.36 0.38,0.3 0.69,0.85 1.11,0.93 5.51,1.1 5.04,5.56 5.16,9.46 0.13,4.11 -0.27,8.24 1.75,12.05 0.44,0.84 0.57,2.04 1.73,2.16 1.38,0.15 1.73,-1.16 2.17,-2.06 2.59,-5.21 3.02,-10.88 3.35,-16.55 0.08,-1.36 -0.01,-2.74 -0.01,-4.11 0,-2.37 0.74,-4.4 3.34,-4.75 2.66,-0.36 4.19,1.34 4.9,3.71 1.01,3.37 1.8,6.8 2.86,10.15 1.34,4.24 2.36,8.61 4.65,13.25 1.47,-4.41 2.77,-8.23 4.02,-12.06 1.21,-3.71 2.37,-7.44 3.58,-11.15 0.59,-1.81 1.85,-3.01 3.7,-3.41 1.88,-0.4 2.84,0.9 3.71,2.27 0.21,0.33 0.39,0.79 0.7,0.92 5.47,2.39 6,7.45 6.86,12.4 0.74,4.23 0.91,8.57 2.23,12.69 0.23,0.71 0.28,1.81 1.31,1.62 1.13,-0.2 0.56,-1.28 0.52,-1.96 -0.54,-8.92 1.37,-17.21 6.18,-24.81 3.26,-5.15 8.87,-7.2 12.57,-4.11 3.54,2.96 4.13,7.26 3.52,11.57 -1.15,8.12 -4.26,15.37 -10.28,21.17 -0.63,0.61 -1.19,1.3 -1.71,2.01 -0.88,1.22 -0.55,2.24 0.75,2.87 2.22,1.09 4.47,1.33 6.74,0.04 2.97,-1.68 5.32,-4.02 6.93,-6.98 1.39,-2.56 2.7,-5.06 4.55,-7.41 1.94,-2.44 0.94,-5.95 1.07,-9.13 z m -89.59,2.12 c 0,-1.29 -0.06,-3.24 0.02,-5.18 0.05,-1.28 0.4,-2.72 -1.23,-3.17 -1.38,-0.38 -2.13,0.79 -2.7,1.79 -3.95,6.85 -4.41,14.17 -2.72,21.72 0.24,1.08 0.38,2.63 1.76,2.75 1.43,0.12 1.94,-1.4 2.67,-2.41 0.22,-0.31 0.33,-0.7 0.45,-1.07 1.45,-4.48 2.56,-9 1.75,-14.43 z m 121.2,-7.25 c -3.47,4.82 -5.07,10.18 -5.37,15.96 -0.09,1.72 -0.61,4.12 1.32,4.61 2.35,0.6 2.74,-2.22 3.84,-3.68 0.16,-0.21 0.23,-0.56 0.22,-0.84 -0.17,-5.31 -0.51,-10.63 -0.01,-16.05 z m -54.62,14.05 c -0.04,2 0.03,2.6 0.44,2.81 0.71,0.36 1.14,-0.21 1.43,-0.64 3.29,-4.92 5.98,-10.08 5.94,-16.21 0,-0.73 0.02,-1.74 -0.84,-2.02 -1.02,-0.34 -1.56,0.55 -2.06,1.27 -3.11,4.44 -4.24,9.54 -4.91,14.79 z"
     id="path9" /><path
     class="st2"
     d="m 334.11,649.74 c -4.22,5.41 -8.29,10.39 -12.94,14.85 -6,5.75 -12.62,10.44 -20.85,12.44 -11.98,2.91 -21.87,-3.99 -25.45,-15.09 -3.02,-9.38 -2.06,-18.78 0.36,-28.06 4.88,-18.69 13.47,-35.57 25.54,-50.65 4.42,-5.52 9.29,-10.61 16.13,-13.2 7.16,-2.71 12.59,1.02 12.69,8.7 0.06,5.05 -1.53,9.62 -4.35,13.75 -0.53,0.78 -1.36,1.39 -2.1,2 -1.14,0.94 -2.35,1.42 -3.7,0.33 -1.38,-1.11 -1.83,-2.39 -1.16,-4.13 1.31,-3.37 2.48,-6.79 3.75,-10.18 0.35,-0.94 0.78,-1.9 -0.01,-2.74 -0.91,-0.96 -2.02,-0.51 -3,-0.09 -5.39,2.33 -9.19,6.62 -12.7,11.05 -9.12,11.5 -16.02,24.29 -20.89,38.12 -3.36,9.55 -5.62,19.33 -4.39,29.6 1.37,11.42 10.42,16.74 21.23,12.43 7.26,-2.9 13.07,-7.68 18.01,-13.67 7.98,-9.67 14.27,-20.51 21.45,-30.73 1.52,-2.16 3.16,-4.21 5.3,-5.83 2.15,-1.63 4.41,-2.54 7.06,-1.18 0.92,0.47 1.91,0.26 2.88,0.26 3.16,0.01 4.45,1.34 4.31,4.54 -0.19,4.41 -0.82,8.75 -1.93,13.03 -1.06,4.05 -0.9,8.14 -0.27,12.23 0.13,0.85 0.43,1.71 0.82,2.49 0.55,1.12 1.51,1.8 2.8,1.82 1.36,0.02 1.77,-1.03 2.16,-2.06 2.29,-6.09 3.41,-12.42 4.03,-18.87 1.6,-16.57 1.57,-33.21 1.76,-49.83 0.01,-1.27 -0.04,-2.56 0.17,-3.81 0.35,-2.08 1.7,-3.28 3.82,-3.4 2.15,-0.12 3.53,0.97 4.04,3.06 0.54,2.21 0.51,4.47 0.47,6.71 -0.36,19.47 -0.28,38.92 0.98,58.36 0.35,5.46 0.55,10.93 0.78,16.4 0.1,2.39 -1.61,4.98 -3.31,4.81 -2.33,-0.23 -3.66,-1.66 -3.79,-4.08 -0.03,-0.59 -0.08,-1.17 -0.13,-1.75 -0.18,-1.94 -0.35,-3.89 -0.54,-5.83 -0.05,-0.47 -0.03,-1.04 -0.63,-1.18 -0.58,-0.13 -0.89,0.32 -1.13,0.74 -0.71,1.28 -1.21,2.71 -2.1,3.85 -4.03,5.16 -12.33,4.77 -15.77,-0.78 -1.3,-2.09 -2.26,-1.41 -3.65,-0.23 -4.2,3.55 -8.35,3.99 -12.03,1.44 -1.86,-1.24 -2.72,-3.18 -3.72,-5.64 z m 7.67,-4.78 c 0.02,1.65 -0.4,3.39 1.04,3.99 1.7,0.71 2.37,-1.22 3.36,-2.15 0.41,-0.39 0.67,-0.94 0.99,-1.43 3.47,-5.24 3.98,-11.31 4.84,-17.27 0.08,-0.56 0.11,-1.21 -0.58,-1.48 -0.67,-0.27 -1.16,0.19 -1.51,0.62 -4.25,5.3 -7.82,10.93 -8.14,17.72 z"
     id="path10" /><path
     class="st1"
     d="m 85.81,587.47 c 1.22,0.66 -0.26,3.01 1.52,2.94 1.55,-0.06 1.68,-1.98 2.19,-3.18 1.65,-3.86 3.48,-7.68 4.33,-11.82 0.32,-1.54 1.15,-3.6 -0.54,-4.59 -1.48,-0.87 -2.87,0.68 -4.14,1.53 -5.13,3.43 -8.89,8.27 -12.6,13.01 -6.63,8.47 -12.79,17.32 -17.89,26.8 -6.9,12.84 -12.28,26.21 -11.64,41.22 0.14,3.33 0.37,6.63 2.29,9.57 2.6,3.98 6.38,5.22 10.92,3.5 5.79,-2.19 10.02,-6.29 13.73,-11.06 2.31,-2.96 4.1,-6.17 5.14,-9.79 0.27,-0.94 0.64,-1.97 -0.22,-2.74 -0.79,-0.71 -1.66,-0.09 -2.47,0.19 -2.59,0.89 -5.19,1.64 -7.12,-1.15 -1.57,-2.28 -0.72,-5.26 2.04,-7.76 1.7,-1.53 3.51,-2.89 5.94,-2.81 2.49,0.08 4.25,-1.15 5.82,-2.88 0.85,-0.94 1.74,-1.86 2.71,-2.68 1.61,-1.36 3.53,-1.57 5.11,-0.23 1.51,1.27 2.34,3.05 1.5,5.21 -0.71,1.81 -1.39,3.65 -1.94,5.51 -0.33,1.11 -0.38,2.3 -0.59,3.75 1.68,-0.73 2.09,-2.2 2.9,-3.29 5.52,-7.42 12.19,-13.72 19.21,-19.64 2.78,-2.34 6.03,-4.4 9.65,-1.01 0.56,0.52 1.31,0.26 1.96,0.02 2.76,-1 4.22,0.48 5.3,2.74 1.01,2.12 0.89,4.38 0.87,6.63 -0.02,4.05 -0.99,7.95 -2,11.83 -0.8,3.07 -0.56,6.02 0.9,8.83 0.88,1.69 2.16,2.51 4.08,1.6 7.07,-3.34 10.32,-9.52 12.28,-16.62 0.33,-1.19 -0.43,-1.61 -1.53,-1.36 -0.86,0.19 -1.69,0.49 -2.54,0.71 -1.55,0.41 -3.01,0.3 -3.77,-1.33 -0.74,-1.58 -0.42,-3.03 0.96,-4.21 2.33,-1.98 5.33,-2.81 7.74,-4.72 1.68,-1.33 2.44,-2.75 2.76,-4.84 1.66,-10.82 3.49,-21.61 5.26,-32.42 0.06,-0.38 0.2,-0.76 0.29,-1.14 0.56,-2.29 1.65,-4.13 4.36,-3.79 2.9,0.37 3.48,2.68 3.34,5.03 -0.21,3.61 -0.69,7.2 -1.14,10.79 -0.66,5.23 -1.45,10.45 -2.07,15.69 -0.12,1.06 -0.65,2.53 0.61,3.21 0.99,0.54 2.04,-0.24 3,-0.72 2.88,-1.45 5.75,-2.92 8.66,-4.3 3.04,-1.45 5.37,-0.95 6.34,1.25 1.01,2.28 -0.05,4.34 -3.08,5.67 -5.26,2.31 -10.03,5.72 -15.71,7.1 -1.28,0.31 -1.63,1.27 -1.71,2.42 -0.86,12.58 -3.8,24.94 -3.77,37.61 0.01,2.12 -0.52,3.86 -2.67,4.75 -1.66,0.69 -2.82,-0.11 -3.9,-1.19 -1.03,-1.02 -0.84,-2.36 -0.81,-3.61 0.11,-3.91 0.42,-7.81 1.03,-11.68 0.2,-1.25 0.27,-2.53 0.3,-3.79 0.01,-0.66 -0.06,-1.4 -0.86,-1.7 -0.79,-0.29 -1.33,0.22 -1.78,0.72 -0.72,0.79 -1.51,1.58 -1.98,2.51 -4.12,8.06 -11.48,9.78 -18.82,4.27 -1.5,-1.13 -2.33,-0.59 -3.43,0.58 -2.21,2.36 -4.68,4.43 -7.83,5.48 -4.37,1.46 -9.07,-0.7 -10.77,-5.05 -1.1,-2.82 -1.98,-5.69 -1.28,-8.82 0.17,-0.77 0.51,-1.93 -0.51,-2.35 -1.04,-0.43 -1.53,0.62 -1.99,1.32 -3.77,5.73 -7.16,11.63 -8.67,18.43 -0.32,1.42 -0.88,2.79 -1.33,4.19 -0.6,1.83 -1.66,3.01 -3.76,3.13 -2.17,0.12 -3.48,-0.87 -4.4,-2.71 -2.11,-4.2 -2.03,-4.08 -5.37,-0.84 -3.96,3.85 -8.41,7.03 -13.96,8.19 -9.59,2 -16.56,-2.16 -19.25,-11.63 -2.51,-8.81 -1.6,-17.62 0.56,-26.37 3.94,-16.01 11.76,-30.13 21.09,-43.54 4.75,-6.83 9.72,-13.47 15.45,-19.51 3.12,-3.29 6.54,-6.18 10.67,-8.13 7.19,-3.41 12.45,-0.04 12.15,7.87 -0.22,5.89 -2.56,11.23 -4.98,16.46 -3.16,6.83 -6.8,13.42 -10.9,19.74 -0.64,0.98 -1.32,1.95 -2.06,2.85 -1.17,1.42 -2.84,1.29 -4.34,0.98 -1.64,-0.33 -1.76,-1.9 -1.98,-3.26 -0.06,-0.38 -0.07,-0.8 0.03,-1.17 1.82,-6.9 3.56,-13.83 7.97,-19.67 0.28,-0.35 0.53,-0.84 1.14,-0.73 z m 22.11,58.79 c 0.3,1.67 -0.31,3.48 1.39,4.41 1.23,0.68 2.36,-0.26 3.16,-0.97 3.74,-3.34 6.47,-7.34 6.67,-12.53 0.16,-4.2 0.24,-8.39 0.97,-12.54 0.13,-0.73 0.48,-1.66 -0.38,-2.13 -0.89,-0.49 -1.48,0.32 -1.93,0.89 -5.34,6.8 -9.08,14.3 -9.88,22.87 z"
     id="path4"
     transform="translate(-1.0634734e-7,9.9999987)" /><path
     class="st1"
     d="m 171.38,639.94 c 1.28,-11.85 5.94,-21.9 15.95,-28.95 1.73,-1.22 3.73,-2.16 6.01,-2.07 1.02,0.04 1.78,-0.31 2.51,-1.16 3.23,-3.78 7.6,-3.7 11.05,0.11 3.31,3.65 3.52,3.64 7.66,0.99 3.24,-2.07 5.96,-4.72 8.62,-7.46 1.71,-1.77 3.7,-2.76 5.97,-1.3 1.77,1.13 1.55,4.47 -0.34,6.58 -4.53,5.06 -9.57,9.48 -16.07,11.84 -1.7,0.62 -2.47,1.65 -2.69,3.4 -1.36,11.11 -7.57,19.5 -15.42,26.84 -2.47,2.31 -5.57,3.95 -8.92,4.89 -5.8,1.62 -11.12,-1.13 -13.22,-6.73 -0.83,-2.24 -0.94,-4.57 -1.11,-6.98 z m 7.08,-0.71 c 0.09,7.44 2.87,9.11 8.1,6.4 0.26,-0.14 0.55,-0.23 0.78,-0.41 7.79,-5.88 12.84,-13.53 14.88,-23.11 0.23,-1.08 0.33,-2.29 -0.75,-2.93 -2.11,-1.24 -4.22,-2.41 -5.77,-4.41 -0.6,-0.77 -1.48,-0.05 -2.12,0.31 -9.99,5.66 -13.64,15.03 -15.12,24.15 z"
     id="path20"
     transform="translate(-1.0634734e-7,9.9999987)" /></g>
	<path
   class="st2"
   d="m 294.51,381.11 c 1.56,0 3.15,-0.18 4.67,0.04 2.17,0.33 4.23,1.08 4.86,3.57 3.38,13.36 11.21,24.64 17.27,36.74 2,4 2.01,5.52 -1.35,8.72 -5.91,5.63 -12.66,9.99 -20.05,13.53 -3.8,1.82 -6.81,1.9 -10.66,0 -6.8,-3.36 -13.06,-7.39 -18.79,-12.31 -4.41,-3.78 -4.49,-5.8 -2.03,-10.82 4.69,-9.54 10.75,-18.39 14.36,-28.47 0.59,-1.65 1.17,-3.32 1.65,-5.01 1.39,-5 3.05,-6.25 8.31,-6.15 0.59,0.01 1.17,0 1.76,0 z"
   id="path11" />
	<path
   class="st1"
   d="m 113.75,409.59 c -8.25,-0.63 -16.34,1.55 -24.57,1.43 -2.7,-0.04 -1.78,1.82 -1.17,3.04 2.82,5.59 6.89,10.15 11.84,13.95 5.68,4.35 12.31,6.75 18.95,9.04 5.47,1.89 10.74,4.19 15.85,6.87 2.73,1.43 4.36,4.73 3.67,7.3 -0.59,2.22 -3.13,3.82 -6.4,3.62 -4.52,-0.27 -8.97,-0.16 -13.38,1 -2.11,0.55 -4.07,1.44 -5.91,2.54 -4.49,2.66 -4.8,7.91 -0.74,12.3 4.42,4.78 10.13,7.56 15.98,10.1 7.78,3.38 15.91,5.94 23.45,9.9 2.08,1.09 4.17,2.21 5.64,4.11 0.65,0.84 1.19,1.88 0.79,3 -0.49,1.35 -1.78,1.02 -2.78,1.04 -4.89,0.08 -9.37,-1.81 -13.94,-3.16 -11.19,-3.29 -22.05,-7.39 -31.67,-14.19 -3.85,-2.72 -7.38,-5.82 -9.69,-10.03 -4.64,-8.47 -1.86,-16.84 6.91,-21.04 1.37,-0.66 3.72,-0.91 3.76,-2.29 0.05,-1.54 -2.37,-1.56 -3.67,-2.3 -10.79,-6.16 -20.23,-13.74 -25.51,-25.36 -1.91,-4.2 -2.35,-8.84 -2.02,-13.49 0.2,-2.85 1.5,-4.6 4.39,-5.46 2.78,-0.83 5.55,-1.03 8.39,-1 7.53,0.08 15.03,-0.51 22.52,-1.19 3.26,-0.3 6.43,0.27 9.54,1.19 3.42,1.01 5.09,2.76 4.69,5.09 -0.53,3.09 -3.11,3.51 -5.56,3.8 -3.1,0.38 -6.24,0.36 -9.36,0.19 z"
   id="path12" />
	<path
   class="st1"
   d="m 478.03,447.99 c 2.7,1.5 4.9,2.54 6.91,3.87 7.55,4.98 9.04,13.13 4.02,20.63 -4.47,6.68 -10.98,10.73 -17.89,14.26 -11.11,5.68 -22.82,9.69 -35.09,12.01 -0.85,0.16 -1.76,0.17 -2.63,0.11 -1.69,-0.11 -2.24,-1.1 -1.65,-2.62 0.92,-2.41 2.74,-3.88 5.01,-5.06 13.45223,-6.9704 28.92524,-10.13701 39.36,-19.15 5.21,-4.5 5.41,-10.91 0.35,-13.83 -3.25,-1.88 -6.81,-2.95 -10.56,-3.29 -2.53,-0.23 -5.07,-0.31 -7.61,-0.08 -3.58,0.32 -6.44,-1.06 -7.16,-3.32 -0.9,-2.83 0.57,-5.98 3.81,-7.77 6.53,-3.61 13.54,-6.07 20.55,-8.54 10.06,-3.55 18.54,-9.17 24.25,-18.43 0.46,-0.75 0.94,-1.49 1.31,-2.28 1.39,-2.97 1.02,-3.36 -2.31,-3.57 -10.24,-0.63 -20.45,-1.81 -30.74,-1.38 -1.43,0.06 -2.92,-0.31 -4.33,-0.69 -1.72,-0.47 -3,-1.6 -3.08,-3.49 -0.08,-1.78 0.69,-3.21 2.43,-3.99 3.17,-1.41 6.5,-2.3 9.96,-2.1 9.46,0.53 18.9,1.34 28.39,1.32 0.29,0 0.58,0.06 0.87,0.1 6.81,0.9 8.58,3.79 7.99,10.6 -1.1,12.71 -9.06,20.74 -18.07,28.27 -4.09,3.43 -8.75,5.87 -14.09,8.42 z"
   id="path13" />
	<path
   class="st1"
   d="m 294.21,287.82 c 10.93,-1.38 17.94,6.11 19.97,15.62 2.16,10.15 -0.13,19.6 -3.94,28.87 -2.35,5.71 -5.52,11 -8.62,16.31 -2.95,5.05 -4.58,10.56 -5.73,16.24 -0.15,0.76 -0.18,1.7 -1.21,1.73 -0.98,0.03 -1.29,-0.84 -1.39,-1.61 -1.06,-8.58 -5.32,-15.83 -9.49,-23.13 -4.39,-7.69 -7.96,-15.75 -9.13,-24.57 -1.08,-8.08 -0.59,-16.08 4.47,-23.03 3.8,-5.23 9.08,-7.19 15.07,-6.43 z"
   id="path14" />
	<path
   class="st1"
   d="m 265.62,441.14 c 1.72,0.03 3.18,0.94 4.58,1.75 7.51,4.38 14.96,8.84 22.41,13.31 1.33,0.8 2.47,0.73 3.81,-0.06 7.5,-4.39 15.04,-8.72 22.59,-13.02 1.75,-1 3.47,-2.3 5.72,-1.8 2.22,0.49 2.78,1.71 1.46,3.57 -1.01,1.42 -2.15,2.74 -3.65,3.76 -6.86,4.68 -13.66,9.45 -20.5,14.16 -1.6,1.1 -2.3,2.37 -1.99,4.44 0.53,3.47 1.01,7 0.98,10.5 -0.05,4.52 1.87,7.69 5.18,10.58 5.97,5.22 12.34,9.91 18.42,14.97 3.59,2.99 7.09,6.13 10.31,9.51 2.89,3.04 2.52,5.13 -0.49,7.33 -1.02,0.74 -1.94,0.86 -2.95,0.15 -0.64,-0.45 -1.29,-0.91 -1.82,-1.48 -9.94,-10.72 -22.02,-18.98 -32.92,-28.6 -1.66,-1.47 -2.79,-1.32 -4.49,0.02 -7.95,6.32 -15.22,13.44 -23.44,19.45 -3.59,2.62 -6.47,6.22 -9.61,9.42 -1.49,1.52 -2.97,2.22 -4.81,0.59 -1.72,-1.52 -3.11,-2.95 -1.16,-5.4 1.03,-1.3 2.02,-2.6 3.22,-3.75 7.85,-7.51 16.69,-13.83 24.96,-20.84 4.18,-3.54 7.06,-7.31 6.88,-13.11 -0.1,-3.29 0.5,-6.62 0.95,-9.91 0.26,-1.89 -0.69,-2.9 -2.05,-3.84 -6.03,-4.16 -12.05,-8.34 -18.07,-12.52 -2.09,-1.45 -4.23,-2.85 -5.78,-4.92 -0.65,-0.87 -1.3,-1.81 -0.59,-2.94 0.64,-1 1.73,-1.19 2.85,-1.32 z"
   id="path15" />
	<path
   class="st1"
   d="m 289.25,220.8 c -0.65,-5.36 1.2,-10.5 4.26,-15.35 1.7,-2.69 4.22,-3.87 7.55,-3.13 2.82,0.63 5.26,2.05 7.35,4.06 7.39,7.07 12.5,15.71 17.08,24.72 1.24,2.44 2.55,4.84 3.72,7.31 0.54,1.14 0.95,2.37 1.17,3.61 0.32,1.8 0.27,3.64 -1.87,4.4 -2.01,0.72 -3.47,-0.27 -4.4,-1.95 -1.65,-2.98 -3.25,-6.01 -4.73,-9.08 -3.63,-7.54 -7.92,-14.59 -14.3,-20.17 -0.44,-0.39 -0.85,-0.82 -1.32,-1.16 -3.76,-2.77 -5.83,-1.82 -6.4,2.87 -0.65,5.45 0.58,10.7 1.63,15.97 0.95,4.8 1.9,9.59 2.74,14.41 0.28,1.62 0.48,3.41 -1.25,4.5 -1.52,0.96 -2.85,0.08 -4.38,-0.35 -7.46,-2.06 -9.58,-8.84 -12.76,-14.45 -3.21,-5.65 -6.94,-10.38 -13.23,-12.57 -3,-1.05 -4.12,-0.27 -4.51,2.9 -0.57,4.7 0.99,9.09 1.96,13.57 0.49,2.29 1,4.59 1.68,6.83 0.84,2.77 0.2,5.21 -1.28,7.54 -1.87,2.96 -5.45,3.02 -6.64,-0.23 -3.27,-8.92 -6.34,-17.96 -4.43,-27.72 0.69,-3.53 0.9,-7.21 3.03,-10.33 2.34,-3.43 6.5,-4.88 10.5,-3.72 3.89,1.13 6.97,3.51 9.66,6.38 2.47,2.63 4.73,5.45 7.1,8.18 0.37,0.43 0.65,1.14 1.31,1 0.88,-0.19 0.71,-1.07 0.73,-1.7 0.06,-1.96 0.03,-3.91 0.03,-6.34 z"
   id="path16" />
	<path
   class="st2"
   d="m 163.4,316.31 c 0.06,-9.45 6.78,-16.39 14.32,-16.08 8.62,0.36 15.55,8.25 14.71,16.79 -0.18,1.84 -0.44,3.67 -1.11,5.44 -0.81,2.15 0.05,3.21 2.3,2.73 6.1,-1.29 12.21,-2.56 18.23,-4.15 7.95,-2.1 15.64,-1.15 22.79,2.4 6.27,3.11 8.47,9.39 9.92,15.84 0.13,0.57 0.29,1.28 -0.39,1.55 -0.84,0.34 -1.23,-0.42 -1.52,-0.99 -0.53,-1.04 -1,-2.12 -1.37,-3.23 -1.77,-5.43 -5.78,-7.86 -11.2,-8.34 -5.53,-0.49 -10.59,1.47 -15.68,3.17 -6.3,2.11 -12.59,4.3 -19.27,4.86 -10.04,0.83 -19.34,-0.86 -26.62,-8.56 -3.34,-3.52 -4.96,-7.86 -5.11,-11.43 z"
   id="path17" />
	<path
   class="st2"
   d="m 395.73,336.53 c -6.29,-0.1 -14.04,-2.75 -21.82,-5.42 -4.42,-1.52 -8.87,-2.99 -13.68,-2.9 -6.11,0.12 -10.25,2.92 -12.56,8.54 -0.33,0.8 -0.68,1.6 -1.14,2.32 -0.33,0.51 -0.38,1.57 -1.2,1.34 -0.89,-0.25 -0.91,-1.25 -0.67,-2 1.75,-5.52 3.55,-11.26 8.88,-14.28 6.22,-3.52 13.14,-4.93 20.34,-3.78 4.72,0.76 9.31,2.1 13.93,3.34 2.81,0.75 5.72,1.2 8.61,1.51 2.18,0.23 2.28,-0.93 1.57,-2.77 -3.68,-9.56 1.12,-19.19 10.71,-21.67 8.24,-2.13 16.6,4.38 17.05,13.16 0.49,9.58 -5.85,16.66 -14.48,20.29 -4.27,1.8 -8.85,2.36 -15.54,2.32 z"
   id="path18" />
	<path
   class="st2"
   d="m 295.41,547.97 c -17.02,-0.31 -32.71,-2.85 -48.07,-7.43 -3.37,-1 -6.85,-1.64 -9.99,-3.34 -0.6,-0.32 -1.25,-0.55 -1.85,-0.89 -1.54,-0.86 -2.98,-2.09 -2.23,-3.94 0.7,-1.73 2.59,-1.91 4.31,-1.61 1.92,0.34 3.81,0.84 5.73,1.25 18.26,3.83 36.78,2.86 55.25,3.03 9.78,0.09 19.56,-0.06 29.33,-0.51 7.63,-0.35 15.11,-2.01 22.6,-3.4 0.29,-0.05 0.56,-0.17 0.85,-0.23 1.79,-0.41 3.91,-0.72 4.59,1.3 0.72,2.12 -0.78,3.57 -2.81,4.44 -10.86,4.66 -22.34,7.05 -33.88,9.15 -8.2,1.5 -16.52,1.86 -23.83,2.18 z"
   id="path19" />
	
	<path
   class="st2"
   d="m 306.18,362.09 c -0.86,-3.55 0.64,-6.57 1.41,-9.62 1.53,-6.05 3.45,-12 6.15,-17.65 2.63,-5.5 2.93,-11.73 5.56,-17.26 2.4,-5.04 4.99,-9.76 10.4,-12.16 7.77,-3.43 15.45,1.09 16,9.61 0.42,6.5 -2.73,11.46 -7.6,15.41 -4.89,3.96 -10.66,6.53 -15.97,9.81 -3.17,1.96 -6.19,4.08 -8.8,6.78 -3.58,3.72 -5.72,8.1 -6.28,13.24 -0.05,0.57 -0.02,1.19 -0.87,1.84 z"
   id="path21" />
	<path
   class="st2"
   d="m 282.84,361.61 c -1.33,-10.28 -7.64,-16.78 -16.17,-21.67 -4.58,-2.62 -9.21,-5.17 -13.59,-8.1 -5.8,-3.88 -9.58,-9.04 -9.46,-16.49 0.13,-8.18 8.4,-13.8 15.91,-9.81 5.48,2.92 8.61,7.51 10.85,12.93 1.11,2.69 2.07,5.46 2.66,8.35 1.53,7.4 5.47,13.98 7.43,21.24 1.19,4.38 2.99,8.69 2.37,13.55 z"
   id="path22" />
	<path
   class="st2"
   d="m 175.85,449.18 c -0.7,-0.12 -1.95,-0.09 -2.98,-0.56 -11.88,-5.38 -21.64,-13.11 -19.47,-29.22 0.22,-1.66 0.28,-4.1 2.26,-4.29 1.69,-0.16 2.26,2.08 2.92,3.59 0.85,1.97 1.71,3.93 2.6,5.88 2.5,5.46 6.74,8.43 12.75,8.81 1.78,0.12 3.46,0.62 5.08,1.3 3.74,1.56 6.46,5.84 5.76,8.97 -0.7,3.04 -4.39,5.45 -8.92,5.52 z"
   id="path23" />
	<path
   class="st2"
   d="m 436.32,423.67 c -0.8,8.07 -3.4,15.14 -10.79,19.69 -3.56,2.19 -6.69,5.13 -11.1,5.66 -2.19,0.26 -4.35,0.1 -6.25,-0.97 -5.14,-2.91 -4.83,-9.18 0.53,-12.59 1.61,-1.02 3.42,-1.67 5.24,-1.73 9.4,-0.32 13.6,-6.49 16.52,-14.26 0.48,-1.27 1.07,-2.53 1.83,-3.65 0.93,-1.36 2.02,-1.17 2.59,0.35 0.9,2.38 1.5,4.86 1.43,7.5 z"
   id="path24" />
	<path
   class="st1"
   d="m 271.55,310.74 c -1.71,-2.14 -3.14,-3.71 -4.33,-5.45 -2.75,-4.01 -6.8,-6.36 -10.8,-8.82 -3.98,-2.44 -7.1,-5.48 -6.99,-10.7 0.12,-5.64 3.81,-8.92 9.41,-7.97 4.25,0.72 7.52,3.02 8.74,7.27 2.23,7.8 3.72,15.77 4.32,23.88 0.02,0.36 -0.14,0.73 -0.35,1.79 z"
   id="path25" />
	<path
   class="st1"
   d="m 318.34,310.34 c -1.15,-4.5 -0.27,-8.47 0.49,-12.46 0.87,-4.59 1.45,-9.26 3.23,-13.63 1.64,-4.01 4.84,-6.06 8.96,-6.52 2.91,-0.32 5.82,0.51 7.5,3.04 1.88,2.82 1.95,6.06 0.61,9.24 -1.46,3.45 -4.34,5.68 -7.45,7.16 -5.68,2.69 -9.01,7.58 -12.76,12.15 -0.24,0.29 -0.39,0.68 -0.58,1.02 z"
   id="path26" />
	<path
   class="st2"
   d="m 231.61,479.17 c -3.46,0.04 -5.52,-2.57 -5.59,-7.08 -0.06,-3.73 2.22,-5.85 6.36,-5.93 3.64,-0.07 6.58,2.7 6.66,6.29 0.09,4.11 -2.73,6.67 -7.43,6.72 z"
   id="path27" />
	<path
   class="st2"
   d="m 357.34,479.18 c -4.58,-0.17 -7.27,-2.7 -7.16,-6.72 0.11,-3.71 3.13,-6.43 6.98,-6.28 3.9,0.16 6.57,2.48 6.12,5.92 -0.66,5.08 -2.03,7.42 -5.94,7.08 z"
   id="path28" />
	<path
   class="st2"
   d="m 173.89,352.28 c 0.03,3.86 -2.52,6.4 -6.41,6.39 -3.07,-0.01 -5.48,-2.63 -5.5,-5.98 -0.02,-3.6 2.93,-6.67 6.37,-6.62 3.32,0.05 5.51,2.5 5.54,6.21 z"
   id="path29" />
	<path
   class="st2"
   d="m 421.75,358.56 c -3.73,-0.01 -6.52,-2.58 -6.58,-6.06 -0.06,-3.51 2.61,-6.49 5.81,-6.46 3.3,0.02 6.29,3.15 6.27,6.53 -0.03,3.4 -2.41,6 -5.5,5.99 z"
   id="path30" />
	<path
   class="st2"
   d="m 157.04,407.65 c -2.7,-0.06 -4.67,-2.34 -4.61,-5.34 0.06,-2.74 2.66,-5.24 5.35,-5.12 2.83,0.12 5.15,2.53 5.13,5.32 -0.03,3.07 -2.47,5.22 -5.87,5.14 z"
   id="path31" />
	<path
   class="st2"
   d="m 431.79,407.61 c -3.52,-0.22 -5.56,-2.33 -5.39,-5.56 0.15,-2.79 2.76,-5.07 5.52,-4.82 3.02,0.27 5.01,2.52 4.85,5.49 -0.15,3.04 -2.21,5.07 -4.98,4.89 z"
   id="path32" />
	<path
   class="st2"
   d="m 349.53,457.71 c -0.08,2.72 -1.81,4.54 -4.31,4.54 -2.49,0 -4.73,-2.19 -4.73,-4.62 0,-2.55 2.36,-4.92 4.83,-4.84 2.62,0.08 4.3,2.04 4.21,4.92 z"
   id="path33" />
	<path
   class="st2"
   d="m 243.88,452.78 c 2.58,-0.05 4.79,2.2 4.82,4.9 0.02,2.22 -2.2,4.52 -4.47,4.61 -2.66,0.1 -4.24,-1.65 -4.31,-4.75 -0.05,-2.96 1.4,-4.71 3.96,-4.76 z"
   id="path34" />
	<path
   class="st2"
   d="m 155.17,382.53 c 0.03,2.4 -2.52,4.52 -5.5,4.52 -2.48,0 -3.03,-1.79 -3.14,-3.74 -0.15,-2.56 1.94,-4.73 4.45,-4.78 2.14,-0.05 4.16,1.88 4.19,4 z"
   id="path35" />
	<path
   class="st2"
   d="m 442.69,383.8 c -0.15,1.52 -0.54,3.22 -2.92,3.23 -3.05,0.01 -5.62,-2.06 -5.58,-4.45 0.04,-2.16 1.8,-4 3.85,-4.04 2.7,-0.05 4.7,2.07 4.65,5.26 z"
   id="path36" />
	<path
   class="st2"
   d="m 341.33,475.68 c 0.01,2.19 -2.12,4.34 -4.36,4.22 -2.39,-0.13 -3.41,-1.67 -3.43,-3.93 -0.03,-2.61 2.01,-5.33 4.02,-5.43 1.94,-0.11 3.76,2.37 3.77,5.14 z"
   id="path37" />
	<path
   class="st2"
   d="m 252.67,479.82 c -2.72,0.05 -4.7,-1.88 -4.67,-4.2 0.03,-2.68 1.61,-5 3.46,-5.07 2.19,-0.08 4.38,2.58 4.3,5.37 -0.06,2.21 -1.07,3.69 -3.09,3.9 z"
   id="path38" />
	<path
   class="st2"
   d="m 357.98,456.07 c 0.04,-1.88 1.13,-2.95 2.87,-2.98 1.82,-0.03 2.78,1.1 2.72,2.99 -0.06,1.87 -1.12,2.96 -2.85,3.03 -1.88,0.07 -2.63,-1.29 -2.74,-3.04 z"
   id="path39" />
	<path
   class="st2"
   d="m 228.54,452.89 c 1.68,0.57 2.96,1.51 2.78,3.5 -0.15,1.65 -1.1,2.72 -2.83,2.68 -1.88,-0.04 -2.82,-1.2 -2.76,-3.01 0.06,-1.74 0.96,-2.89 2.81,-3.17 z"
   id="path40" />
	
	
	
	
	
	
	
	
</g></g><style
     type="text/css"
     id="style1">
	.st0{fill:#2C2C2D;}
	.st1{fill:#1095B5;}
	.st2{fill:#E44681;}
</style></svg>
