<svg width="400" height="350" viewBox="0 0 400 350" fill="none" xmlns="http://www.w3.org/2000/svg">
<path d="M385.497 121.775C385.117 136.672 385.061 153.386 381.008 169.74C379.441 176.058 377.279 182.192 373.875 187.801C368.579 196.518 357.514 197.145 351.782 188.954C347.895 183.401 348.331 177.525 351.633 171.862C353.767 168.2 356.336 164.796 358.571 161.198C364.201 152.131 366.177 141.929 367.253 131.58C369.859 106.5 368.477 81.6222 362.077 57.1969C358.924 45.1594 354.806 33.371 347.71 22.9017C347.664 22.8279 347.617 22.7449 347.571 22.6711C344.362 17.9576 343.907 17.7454 338.62 19.7655C326.164 24.5067 315.599 31.9229 307.418 42.4383C300.202 51.7178 297.744 62.6391 297.179 74.1138C297.039 77.001 296.696 79.8605 296.112 82.7015C293.431 95.8089 281.401 100.679 270.234 93.1708C262.202 87.7747 258.12 77.3146 260.05 67.4909C262.424 55.3613 268.499 45.0487 276.328 35.797C289.61 20.0791 306.278 8.94565 325.672 2.06448C334.854 -1.20085 343.954 -1.26542 351.188 6.85178C353.952 9.95107 356.707 13.0688 358.97 16.5647C370.805 34.7915 378.392 54.5772 381.333 76.1247C383.318 90.6711 385.386 105.227 385.497 121.775Z" fill="#1095B5"/>
<path d="M31.3874 111.029C31.4616 122.605 32.4633 134.08 34.9305 145.407C36.8134 154.031 41.0151 161.521 46.2 168.578C48.3425 171.493 49.9379 174.749 50.5686 178.392C51.4961 183.742 48.7135 189.867 43.9646 192.856C39.8279 195.457 34.1978 195.346 30.1353 192.311C26.0541 189.258 24.1435 184.701 22.3162 180.172C17.1778 167.425 15.7957 153.994 15.0816 140.435C14.6178 131.608 13.9407 122.752 14.5714 113.943C16.0647 93.1708 17.5302 72.3244 24.0043 52.345C29.1706 36.3966 36.1827 21.3244 47.2852 8.37377C52.8596 1.87079 59.5099 -0.850313 67.9968 0.496403C76.1219 1.78778 83.3844 5.19147 90.3964 9.2224C101.74 15.7346 112.434 23.1323 121.19 32.9467C129.39 42.1432 135.984 52.345 139.11 64.3732C141.865 74.9901 139.37 86.1882 130.029 92.9402C122.108 98.6591 111.247 97.377 106.712 89.9793C103.716 85.0997 103.057 79.6391 102.76 74.1415C102.361 66.6147 101.221 59.2815 98.2526 52.2712C94.561 43.5545 88.4765 36.7747 81.0841 31.0281C74.4059 25.835 67.2362 21.555 59.1296 18.8339C56.8665 18.0775 55.6885 18.4926 54.288 20.1345C49.335 25.9457 46.2834 32.7899 43.5565 39.7541C37.036 56.422 33.2425 73.6988 32.2129 91.5935C31.8419 98.0688 31.3503 104.535 31.3874 111.029Z" fill="#1095B5"/>
<path d="M298.523 178.429C298.514 182.017 298.607 181.593 302.048 182.285C308.327 183.548 315.172 187.718 315.33 195.466C315.432 200.742 314.811 205.732 311.147 209.892C309.978 211.211 310.785 212.023 311.759 213.038C317.807 219.319 316.749 231.431 309.765 236.661C306.018 239.474 301.816 239.308 297.531 238.404C294.34 237.731 294.303 237.731 294.637 240.95C294.99 244.353 293.311 248.643 288.961 250.072C287.152 250.663 285.445 251.53 283.637 252.129C275.076 254.998 270.28 253.541 265.003 246.272C263.546 244.261 262.508 243.699 260.309 245.46C255.663 249.205 247.806 249.03 243.373 245.082C239.357 241.503 236.129 237.288 234.636 231.975C233.931 229.475 233.894 226.948 234.663 224.503C235.109 223.101 234.738 222.336 233.643 221.552C232.178 220.5 230.786 219.375 229.469 218.111C224.618 213.453 224.09 207.946 226.696 202.227C229.302 196.49 232.28 190.826 239.06 188.686C240.748 188.151 240.108 186.611 240.025 185.421C239.542 178.659 241.722 172.848 247.12 168.744C254.16 163.394 262.6 164.805 268.954 169.887C270.419 171.059 270.8 170.893 272.108 169.814C278.498 164.537 283.423 163.172 291.177 165.773C295.027 167.065 298.533 173.429 298.523 178.429ZM299.933 205.216C299.97 200.853 296.381 193.796 289.397 188.935C277.821 180.882 265.93 181.15 254.188 188.963C245.988 194.423 241.907 206.802 244.773 216.045C248.168 226.984 259.233 234.428 270.41 234.936C286.234 235.655 299.571 224.226 299.933 205.216Z" fill="#1095B5"/>
<path d="M159.812 184.849C159.247 186.869 159.989 188.207 162.706 189.572C170.08 193.289 173.419 200.087 174.523 207.918C175.321 213.619 171.805 217.428 167.585 220.519C165.693 221.902 164.849 223.027 165.433 225.573C166.769 231.44 163.977 236.273 160.582 240.765C159.497 242.204 158.282 243.57 156.946 244.769C151.993 249.233 143.803 249.252 138.758 244.796C137.617 243.791 136.875 243.625 135.947 244.962C135.131 246.143 134.101 247.185 133.248 248.357C129.668 253.246 124.715 254.103 119.178 253.015C115.597 252.314 112.193 250.921 109.058 249.15C105.664 247.241 104.782 243.883 105.432 240.24C105.849 237.887 105.172 237.648 103.057 238.238C95.6463 240.304 89.6267 238.358 86.5195 232.547C83.4401 226.782 82.4662 218.019 88.2447 212.992C89.6174 211.793 89.5339 210.833 88.5137 209.588C84.2471 204.367 84.0616 198.362 85.2395 192.145C85.8146 189.129 87.6696 186.887 90.3409 185.495C93.3275 183.936 96.0173 181.491 99.8666 182.239C101.443 182.543 101.508 181.325 101.443 180.117C101.267 177.027 101.545 174.112 103.15 171.253C106.461 165.322 112.128 163.855 118.269 164.805C121.858 165.358 125.067 167.249 127.748 169.712C129.037 170.893 129.733 170.967 131.087 169.832C138.72 163.44 148.988 163.901 155.444 171.271C158.569 174.832 160.276 179.296 159.812 184.849ZM128.045 183.189C124.965 182.976 122.09 183.724 119.187 184.535C100.423 189.765 93.9211 211.746 106.906 226.118C115.56 235.692 131.541 237.712 143.358 230.72C154.794 223.959 159.358 210.953 153.821 198.962C148.868 188.225 139.592 183.659 128.045 183.189Z" fill="#1095B5"/>
<path d="M94.8766 90.422C95.5166 92.6819 94.2273 95.154 93.0586 97.5707C91.5004 100.808 88.7549 102.33 85.119 102.174C84.4883 102.146 83.8391 102.137 83.2269 101.989C74.2856 99.8583 69.6294 104.867 67.2086 112.578C65.1124 119.238 64.9825 126.267 63.3686 133.019C62.9141 134.947 62.5802 136.911 62.0144 138.802C60.7066 143.175 58.36 144.89 54.1398 144.752C50.7914 144.641 47.1926 141.477 46.126 138.018C42.5828 126.553 42.4066 114.764 42.4159 102.93C42.4159 89.9055 43.7793 77.0102 46.228 64.2533C47.9903 55.0938 51.5241 46.46 56.2267 38.3797C58.3414 34.7454 61.8196 34.358 65.6132 36.4519C73.4508 40.778 77.8565 47.9543 82.1973 55.2782C86.1208 61.9196 88.69 69.1605 91.7323 76.1892C93.578 80.4877 94.7096 85.0628 94.8766 90.422Z" fill="#E44681"/>
<path d="M357.44 106.979C357.681 116.295 357.161 127.429 353.655 138.221C352.357 142.224 348.73 144.946 344.983 144.687C340.948 144.411 339.149 142.962 337.971 139.088C335.866 132.152 335.216 124.938 334.001 117.836C333.5 114.875 332.564 112.062 331.432 109.322C328.946 103.326 324.457 100.836 318.029 101.786C315.97 102.09 313.911 102.533 311.843 101.86C308.086 100.642 305.369 96.639 305.146 92.2668C304.858 86.557 306.148 81.1517 308.309 75.9586C311.212 68.9759 313.837 61.8365 317.686 55.2874C321.888 48.1387 326.164 40.9993 333.844 36.7746C338.973 33.9521 341.774 34.8745 344.621 39.9754C352.227 53.6086 354.954 68.4778 356.494 83.7345C357.199 90.8555 357.421 97.9488 357.44 106.979Z" fill="#E44681"/>
<path d="M199.854 196.047C201.3 196.047 202.775 195.881 204.185 196.084C206.198 196.388 208.108 197.08 208.693 199.377C211.828 211.7 219.09 222.105 224.711 233.266C226.566 236.956 226.575 238.358 223.459 241.31C217.977 246.503 211.717 250.524 204.862 253.79C201.338 255.469 198.546 255.542 194.975 253.79C188.668 250.69 182.861 246.973 177.547 242.435C173.456 238.948 173.382 237.085 175.664 232.454C180.014 223.655 185.635 215.491 188.983 206.193C189.53 204.672 190.068 203.131 190.513 201.572C191.803 196.96 193.342 195.807 198.221 195.899C198.768 195.909 199.306 195.899 199.854 195.899C199.854 195.955 199.854 196.001 199.854 196.047Z" fill="#E44681"/>
<path d="M32.1944 222.317C24.5423 221.736 17.0386 223.747 9.40511 223.636C6.9008 223.599 7.75412 225.315 8.31991 226.44C10.9355 231.597 14.7105 235.803 19.3018 239.308C24.5701 243.32 30.7196 245.534 36.8783 247.647C41.9519 249.39 46.8399 251.511 51.5796 253.984C54.1117 255.303 55.6236 258.346 54.9836 260.717C54.4364 262.765 52.0804 264.241 49.0474 264.056C44.855 263.807 40.7276 263.909 36.6372 264.979C34.6801 265.486 32.8622 266.307 31.1555 267.322C26.9909 269.775 26.7034 274.618 30.4692 278.667C34.5688 283.076 39.865 285.641 45.291 287.983C52.5071 291.101 60.0479 293.463 67.0414 297.115C68.9706 298.121 70.9092 299.154 72.2726 300.906C72.8755 301.681 73.3764 302.641 73.0054 303.674C72.5509 304.919 71.3544 304.614 70.4268 304.633C65.8913 304.707 61.736 302.963 57.4972 301.718C47.1182 298.683 37.0453 294.902 28.1225 288.629C24.5516 286.12 21.2774 283.261 19.1348 279.377C14.8311 271.565 17.4096 263.844 25.544 259.97C26.8147 259.361 28.9944 259.131 29.0315 257.858C29.0779 256.437 26.8333 256.419 25.6275 255.736C15.6195 250.054 6.8637 243.062 1.96638 232.344C0.194811 228.47 -0.213303 224.19 0.0927795 219.9C0.278284 217.272 1.48406 215.657 4.16461 214.864C6.74312 214.099 9.31236 213.914 11.9465 213.942C18.9308 214.016 25.8872 213.471 32.8343 212.844C35.8581 212.567 38.7983 213.093 41.6829 213.942C44.855 214.873 46.404 216.488 46.033 218.637C45.5414 221.487 43.1484 221.874 40.876 222.142C38.0006 222.492 35.0882 222.474 32.1944 222.317Z" fill="#1095B5"/>
<path d="M370.073 257.738C372.577 259.121 374.618 260.081 376.482 261.308C383.485 265.901 384.867 273.419 380.21 280.337C376.064 286.499 370.026 290.234 363.617 293.49C353.312 298.73 342.451 302.429 331.07 304.569C330.282 304.716 329.438 304.725 328.631 304.67C327.063 304.569 326.553 303.655 327.101 302.253C327.954 300.03 329.642 298.674 331.747 297.586C339.409 293.638 347.664 291.092 355.501 287.569C360.065 285.521 364.443 283.196 368.255 279.922C373.087 275.771 373.273 269.858 368.579 267.165C365.565 265.431 362.263 264.444 358.785 264.13C356.438 263.918 354.082 263.844 351.726 264.056C348.406 264.351 345.753 263.079 345.085 260.994C344.25 258.384 345.614 255.478 348.619 253.827C354.676 250.497 361.178 248.228 367.68 245.949C377.011 242.675 384.876 237.491 390.172 228.949C390.599 228.258 391.044 227.575 391.387 226.846C392.676 224.107 392.333 223.747 389.245 223.553C379.747 222.972 370.277 221.884 360.732 222.28C359.406 222.336 358.024 221.994 356.716 221.644C355.121 221.21 353.934 220.168 353.86 218.425C353.785 216.783 354.5 215.464 356.113 214.744C359.054 213.444 362.142 212.623 365.352 212.807C374.126 213.296 382.882 214.043 391.684 214.025C391.953 214.025 392.222 214.08 392.491 214.117C398.807 214.947 400.449 217.613 399.902 223.895C398.882 235.618 391.498 243.025 383.141 249.971C379.348 253.135 375.026 255.386 370.073 257.738Z" fill="#1095B5"/>
<path d="M199.575 109.996C209.713 108.723 216.215 115.632 218.098 124.404C220.101 133.766 217.977 142.483 214.443 151.034C212.264 156.301 209.323 161.18 206.448 166.078C203.712 170.736 202.2 175.819 201.133 181.058C200.994 181.759 200.966 182.626 200.011 182.654C199.102 182.681 198.815 181.879 198.722 181.169C197.739 173.254 193.787 166.567 189.92 159.833C185.848 152.74 182.537 145.305 181.451 137.17C180.45 129.717 180.904 122.337 185.597 115.927C189.122 111.103 194.019 109.295 199.575 109.996Z" fill="#1095B5"/>
<path d="M173.057 251.419C174.653 251.447 176.007 252.286 177.305 253.033C184.271 257.074 191.181 261.187 198.091 265.311C199.325 266.049 200.382 265.984 201.625 265.255C208.581 261.206 215.575 257.212 222.578 253.246C224.201 252.323 225.796 251.124 227.883 251.585C229.942 252.037 230.462 253.163 229.237 254.878C228.301 256.188 227.243 257.406 225.852 258.346C219.489 262.663 213.182 267.063 206.838 271.408C205.354 272.422 204.704 273.594 204.992 275.503C205.483 278.704 205.929 281.96 205.901 285.189C205.854 289.358 207.635 292.282 210.705 294.948C216.243 299.763 222.151 304.089 227.79 308.756C231.12 311.514 234.367 314.41 237.353 317.528C240.034 320.332 239.691 322.26 236.899 324.289C235.953 324.972 235.099 325.083 234.162 324.428C233.569 324.013 232.966 323.588 232.474 323.063C223.255 313.174 212.05 305.555 201.94 296.682C200.401 295.326 199.352 295.464 197.776 296.7C190.402 302.53 183.659 309.097 176.035 314.641C172.705 317.058 170.034 320.378 167.121 323.33C165.739 324.732 164.366 325.378 162.66 323.874C161.064 322.472 159.775 321.153 161.584 318.893C162.539 317.694 163.457 316.495 164.57 315.434C171.851 308.507 180.051 302.677 187.721 296.211C191.598 292.946 194.27 289.469 194.103 284.119C194.01 281.084 194.566 278.012 194.984 274.977C195.225 273.234 194.344 272.303 193.082 271.435C187.489 267.598 181.906 263.743 176.322 259.887C174.384 258.549 172.399 257.258 170.961 255.349C170.358 254.546 169.755 253.679 170.414 252.637C171.007 251.714 172.018 251.539 173.057 251.419Z" fill="#1095B5"/>
<path d="M194.975 48.1756C194.372 43.2315 196.088 38.4903 198.926 34.0166C200.503 31.5353 202.84 30.4469 205.929 31.1295C208.545 31.7106 210.808 33.0204 212.746 34.8745C219.601 41.3959 224.34 49.3655 228.588 57.6764C229.738 59.9271 230.954 62.1409 232.039 64.4192C232.54 65.4708 232.92 66.6053 233.124 67.7491C233.421 69.4095 233.374 71.1067 231.389 71.8077C229.525 72.4718 228.171 71.5587 227.308 70.009C225.778 67.2602 224.294 64.4653 222.921 61.6335C219.554 54.6786 215.575 48.1756 209.658 43.0286C209.249 42.6688 208.869 42.2722 208.433 41.9586C204.946 39.4035 203.026 40.2798 202.497 44.6059C201.894 49.633 203.035 54.4756 204.009 59.3367C204.89 63.7643 205.771 68.1826 206.55 72.6287C206.81 74.123 206.996 75.7741 205.391 76.7795C203.981 77.665 202.748 76.8533 201.328 76.4567C194.409 74.5565 192.443 68.3026 189.493 63.1278C186.516 57.9162 183.056 53.5532 177.222 51.5332C174.44 50.5646 173.401 51.2841 173.039 54.2081C172.51 58.5435 173.957 62.5929 174.857 66.7252C175.311 68.8376 175.784 70.9591 176.415 73.0253C177.194 75.5804 176.601 77.831 175.228 79.9803C173.493 82.7106 170.173 82.7659 169.069 79.7681C166.036 71.5402 163.189 63.2016 164.96 54.1989C165.6 50.9428 165.795 47.5484 167.771 44.6704C169.941 41.5066 173.8 40.1691 177.51 41.2391C181.118 42.2814 183.974 44.4767 186.47 47.1241C188.761 49.55 190.857 52.1512 193.055 54.6694C193.398 55.066 193.658 55.7209 194.27 55.5918C195.086 55.4165 194.929 54.6048 194.947 54.0237C195.003 52.2157 194.975 50.4171 194.975 48.1756Z" fill="#1095B5"/>
<path d="M78.2459 136.275C78.3015 127.558 84.5345 121.157 91.528 121.443C99.5233 121.775 105.951 129.052 105.172 136.93C105.005 138.627 104.764 140.315 104.142 141.948C103.391 143.931 104.189 144.909 106.276 144.466C111.934 143.276 117.601 142.105 123.184 140.638C130.558 138.701 137.691 139.577 144.323 142.852C150.138 145.72 152.179 151.513 153.524 157.463C153.644 157.988 153.793 158.643 153.162 158.892C152.383 159.206 152.021 158.505 151.752 157.979C151.261 157.02 150.825 156.024 150.481 155C148.84 149.991 145.12 147.75 140.093 147.307C134.964 146.855 130.271 148.663 125.55 150.231C119.706 152.177 113.872 154.197 107.676 154.714C98.3639 155.479 89.7379 153.921 82.9855 146.818C79.8876 143.571 78.385 139.568 78.2459 136.275Z" fill="#E44681"/>
<path d="M293.737 154.926C287.903 154.834 280.715 152.389 273.499 149.926C269.399 148.524 265.272 147.168 260.81 147.251C255.143 147.362 251.303 149.945 249.161 155.129C248.854 155.867 248.53 156.605 248.103 157.269C247.797 157.739 247.751 158.717 246.99 158.505C246.165 158.274 246.146 157.352 246.369 156.66C247.992 151.568 249.661 146.274 254.605 143.488C260.374 140.241 266.793 138.941 273.471 140.001C277.849 140.702 282.106 141.938 286.391 143.082C288.998 143.774 291.697 144.189 294.377 144.475C296.399 144.687 296.492 143.617 295.834 141.92C292.42 133.102 296.872 124.219 305.767 121.931C313.41 119.967 321.164 125.972 321.582 134.07C322.036 142.907 316.156 149.438 308.151 152.786C304.19 154.446 299.942 154.963 293.737 154.926Z" fill="#E44681"/>
<path d="M200.688 349.96C184.902 349.674 170.349 347.331 156.102 343.107C152.976 342.184 149.749 341.594 146.836 340.026C146.28 339.731 145.677 339.519 145.12 339.205C143.692 338.412 142.356 337.277 143.052 335.571C143.701 333.975 145.454 333.809 147.049 334.086C148.83 334.399 150.583 334.86 152.364 335.239C169.301 338.771 186.478 337.877 203.61 338.033C212.681 338.116 221.752 337.978 230.814 337.563C237.891 337.24 244.829 335.709 251.776 334.427C252.045 334.381 252.296 334.27 252.565 334.215C254.225 333.837 256.191 333.551 256.822 335.414C257.49 337.369 256.098 338.707 254.215 339.509C244.143 343.808 233.495 346.012 222.791 347.949C215.185 349.333 207.468 349.665 200.688 349.96Z" fill="#E44681"/>
<path d="M210.677 178.503C209.88 175.228 211.271 172.443 211.985 169.629C213.404 164.049 215.185 158.56 217.69 153.349C220.129 148.276 220.407 142.529 222.847 137.428C225.073 132.779 227.475 128.425 232.493 126.212C239.7 123.048 246.823 127.217 247.333 135.076C247.723 141.072 244.801 145.647 240.284 149.29C235.748 152.943 230.397 155.314 225.471 158.339C222.531 160.147 219.73 162.102 217.309 164.593C213.989 168.024 212.004 172.064 211.484 176.806C211.438 177.331 211.466 177.903 210.677 178.503Z" fill="#E44681"/>
<path d="M189.029 178.06C187.796 168.578 181.943 162.582 174.031 158.071C169.783 155.655 165.489 153.303 161.426 150.6C156.047 147.021 152.541 142.261 152.652 135.389C152.772 127.844 160.443 122.66 167.409 126.341C172.492 129.034 175.395 133.268 177.472 138.267C178.502 140.749 179.392 143.304 179.94 145.969C181.359 152.795 185.013 158.865 186.831 165.561C187.935 169.602 189.604 173.577 189.029 178.06Z" fill="#E44681"/>
<path d="M89.7935 258.835C89.1442 258.725 87.9848 258.752 87.0295 258.319C76.0105 253.356 66.9579 246.226 68.9706 231.366C69.1747 229.835 69.2303 227.584 71.0668 227.409C72.6343 227.261 73.163 229.328 73.7752 230.72C74.5636 232.538 75.3612 234.346 76.1867 236.144C78.5055 241.181 82.4382 243.92 88.0127 244.271C89.6636 244.381 91.2219 244.843 92.7245 245.47C96.1934 246.909 98.7163 250.857 98.067 253.744C97.4177 256.548 93.9952 258.771 89.7935 258.835Z" fill="#E44681"/>
<path d="M331.386 235.305C330.644 242.749 328.232 249.27 321.378 253.467C318.076 255.487 315.173 258.199 311.082 258.688C309.051 258.928 307.048 258.78 305.285 257.793C300.518 255.109 300.805 249.325 305.777 246.18C307.27 245.239 308.949 244.639 310.637 244.584C319.356 244.289 323.251 238.598 325.96 231.431C326.405 230.259 326.952 229.097 327.657 228.064C328.52 226.809 329.531 226.985 330.059 228.387C330.894 230.582 331.451 232.87 331.386 235.305Z" fill="#E44681"/>
<path d="M178.558 131.137C176.971 129.163 175.645 127.715 174.541 126.11C171.991 122.411 168.234 120.244 164.524 117.974C160.833 115.724 157.939 112.92 158.041 108.105C158.152 102.902 161.575 99.8768 166.769 100.753C170.711 101.417 173.744 103.539 174.875 107.459C176.944 114.654 178.326 122.005 178.882 129.486C178.901 129.818 178.752 130.159 178.558 131.137Z" fill="#1095B5"/>
<path d="M221.956 130.768C220.89 126.617 221.706 122.955 222.411 119.275C223.218 115.041 223.756 110.733 225.407 106.703C226.928 103.004 229.896 101.113 233.717 100.688C236.417 100.393 239.116 101.159 240.674 103.493C242.418 106.094 242.483 109.082 241.24 112.016C239.886 115.198 237.214 117.255 234.33 118.62C229.061 121.101 225.973 125.612 222.494 129.827C222.272 130.095 222.133 130.455 221.956 130.768Z" fill="#1095B5"/>
<path d="M141.512 286.499C138.303 286.535 136.392 284.128 136.327 279.968C136.272 276.527 138.386 274.572 142.226 274.498C145.603 274.433 148.33 276.988 148.404 280.3C148.487 284.091 145.872 286.452 141.512 286.499Z" fill="#E44681"/>
<path d="M258.13 286.507C253.882 286.351 251.387 284.017 251.489 280.309C251.591 276.887 254.392 274.378 257.963 274.516C261.58 274.664 264.057 276.804 263.64 279.977C263.027 284.663 261.757 286.821 258.13 286.507Z" fill="#E44681"/>
<path d="M87.9756 169.454C88.0035 173.014 85.6383 175.357 82.0302 175.348C79.1827 175.339 76.9474 172.922 76.9288 169.832C76.9103 166.511 79.6465 163.68 82.8372 163.726C85.9165 163.772 87.9478 166.032 87.9756 169.454Z" fill="#E44681"/>
<path d="M317.872 175.247C314.412 175.238 311.824 172.867 311.768 169.657C311.713 166.419 314.189 163.671 317.157 163.698C320.218 163.717 322.992 166.604 322.973 169.722C322.945 172.858 320.738 175.256 317.872 175.247Z" fill="#E44681"/>
<path d="M72.3468 220.528C69.8425 220.472 68.0152 218.369 68.0709 215.602C68.1265 213.075 70.5381 210.769 73.0331 210.879C75.658 210.99 77.8099 213.213 77.7913 215.786C77.7635 218.618 75.5003 220.601 72.3468 220.528Z" fill="#E44681"/>
<path d="M327.184 220.491C323.919 220.288 322.027 218.342 322.184 215.362C322.324 212.789 324.744 210.686 327.304 210.916C330.105 211.165 331.951 213.241 331.803 215.98C331.664 218.784 329.753 220.657 327.184 220.491Z" fill="#E44681"/>
<path d="M250.886 266.703C250.812 269.212 249.207 270.891 246.888 270.891C244.579 270.891 242.501 268.871 242.501 266.63C242.501 264.278 244.69 262.091 246.981 262.165C249.411 262.239 250.969 264.047 250.886 266.703Z" fill="#E44681"/>
<path d="M152.893 262.156C155.286 262.11 157.336 264.185 157.364 266.676C157.382 268.723 155.323 270.845 153.218 270.928C150.751 271.02 149.285 269.406 149.22 266.547C149.174 263.816 150.519 262.202 152.893 262.156Z" fill="#E44681"/>
<path d="M70.6124 197.357C70.6402 199.571 68.2751 201.526 65.511 201.526C63.2108 201.526 62.7006 199.875 62.5986 198.076C62.4595 195.715 64.398 193.713 66.7261 193.667C68.711 193.621 70.5846 195.401 70.6124 197.357Z" fill="#E44681"/>
<path d="M337.294 198.528C337.155 199.93 336.793 201.499 334.586 201.508C331.757 201.517 329.373 199.608 329.41 197.403C329.447 195.411 331.08 193.713 332.981 193.677C335.485 193.63 337.34 195.586 337.294 198.528Z" fill="#E44681"/>
<path d="M243.28 283.279C243.289 285.299 241.314 287.282 239.236 287.172C237.019 287.052 236.073 285.631 236.055 283.547C236.027 281.139 237.919 278.63 239.783 278.538C241.583 278.437 243.271 280.724 243.28 283.279Z" fill="#E44681"/>
<path d="M161.046 287.098C158.523 287.144 156.686 285.364 156.714 283.224C156.742 280.752 158.207 278.612 159.923 278.547C161.955 278.473 163.986 280.927 163.912 283.501C163.856 285.539 162.919 286.904 161.046 287.098Z" fill="#E44681"/>
<path d="M258.724 265.191C258.761 263.457 259.772 262.47 261.386 262.442C263.074 262.414 263.964 263.457 263.909 265.2C263.853 266.925 262.87 267.93 261.265 267.995C259.521 268.059 258.826 266.805 258.724 265.191Z" fill="#E44681"/>
<path d="M138.664 262.258C140.223 262.783 141.41 263.65 141.243 265.486C141.104 267.008 140.223 267.995 138.618 267.958C136.874 267.921 136.003 266.851 136.058 265.182C136.114 263.577 136.949 262.516 138.664 262.258Z" fill="#E44681"/>
</svg>
